<svg xmlns="http://www.w3.org/2000/svg" xmlns:xlink="http://www.w3.org/1999/xlink" id="Capa_1" width="50" height="50" x="0" y="0" enable-background="new -118.5 -10 50 50" version="1.0" viewBox="-118.5 -10 50 50" xml:space="preserve"><path fill="#075E54" d="M33.2,10.6L9,0.6C7.4-0.1,6,0.8,5.9,2.6L6,11.2l16.2,2.7L6.1,17.7l0.2,9c0.1,1.8,1.5,2.5,3,1.6l24.1-14.7	C34.9,12.6,34.8,11.3,33.2,10.6z"/><g><path fill="#075E54" d="M-68.5,15c0,13.8-11.2,25-25,25c-13.8,0-25-11.2-25-25c0-13.8,11.2-25,25-25C-79.7-10-68.5,1.2-68.5,15z"/></g><polygon fill="#FFF" points="-102.3 3.9 -78.4 14.9 -102.3 25.1 -102.3 16.5 -89.8 15 -102.3 12.6"/></svg>