<svg xmlns="http://www.w3.org/2000/svg" xmlns:xlink="http://www.w3.org/1999/xlink" id="Layer_1" width="30.9" height="31.5" x="0" y="0" enable-background="new 0 0 30.9 31.5" version="1.0" viewBox="0 0 30.9 31.5" xml:space="preserve"><path fill="#FFF" d="M30.5,26c0,2.9-2.3,5.2-5,5.2c-2.8,0-5-2.3-5-5.2c0-0.4,0-0.7,0.1-1.1L9.2,19c-0.9,1.1-2.3,1.8-3.8,1.8	c-2.8,0-5-2.3-5-5.2c0-2.9,2.2-5.2,5-5.2c1.5,0,2.9,0.7,3.8,1.8l11.4-5.9c-0.1-0.4-0.1-0.7-0.1-1.1c0-2.9,2.3-5.2,5-5.2	c2.8,0,5,2.3,5,5.2c0,2.9-2.3,5.2-5,5.2c-1.5,0-2.8-0.7-3.8-1.8l-11.4,5.9c0.1,0.4,0.1,0.7,0.1,1.1c0,0.4,0,0.7-0.1,1.1l11.4,5.9	c0.9-1.1,2.3-1.8,3.8-1.8C28.3,20.8,30.5,23.2,30.5,26z"/></svg>